<?xml version="1.0" encoding="UTF-8"?>
<svg width="26px" height="26px" viewBox="0 0 26 26" version="1.1" xmlns="http://www.w3.org/2000/svg" xmlns:xlink="http://www.w3.org/1999/xlink">
    <!-- Generator: Sketch 46 (44423) - http://www.bohemiancoding.com/sketch -->
    <title>call copy 2</title>
    <desc>Created with Sketch.</desc>
    <defs></defs>
    <g id="Page-1" stroke="none" stroke-width="1" fill="none" fill-rule="evenodd" stroke-opacity="0.6">
        <g id="Create-account---Enter-Phone-number-Terms-overlay-Screen--tweaks" transform="translate(-464.000000, -146.000000)" stroke="#0B0A3E" stroke-width="1.5">
            <g id="Group-2" transform="translate(198.000000, 136.000000)">
                <g id="Phone-Number" transform="translate(36.000000, 0.000000)">
                    <g id="call-copy-2" transform="translate(232.000000, 12.000000)">
                        <path d="M5.33632021,9.68971449 C6.88351057,12.5207371 9.36011461,14.9636675 12.3641697,16.6780035 L14.6601648,14.386292 C15.2444037,13.8031431 16.0679896,13.6072649 16.7406567,13.9926244 C17.9849417,14.4344315 19.3452546,14.6562028 20.8249993,14.6562028 C21.9738996,14.6562028 22.7999992,15.4807612 22.7999992,16.6289173 L22.7999992,20.7861467 C22.7999992,21.9343028 21.9738996,22.7588612 20.8249993,22.7588612 C8.89609932,22.7588612 -0.75,13.1307583 -0.75,1.22271451 C-0.75,0.0745583921 0.0760996227,-0.75 1.22499996,-0.75 L5.51249981,-0.75 C6.66140014,-0.75 7.48749977,0.0745583921 7.48749977,1.22271451 C7.48749977,2.6081032 7.71912303,3.99524999 8.18387914,5.38691705 C8.38231074,5.98110125 8.22809109,6.69945027 7.85117854,7.26376429 L7.74541098,7.38966596 L5.33632021,9.68971449 Z" id="Shape"></path>
                    </g>
                </g>
            </g>
        </g>
    </g>
</svg>