<?xml version="1.0" encoding="UTF-8"?>
<svg width="26px" height="26px" viewBox="0 0 26 26" version="1.1" xmlns="http://www.w3.org/2000/svg" xmlns:xlink="http://www.w3.org/1999/xlink">
    <!-- Generator: Sketch 43.1 (39012) - http://www.bohemiancoding.com/sketch -->
    <title>call</title>
    <desc>Created with Sketch.</desc>
    <defs></defs>
    <g id="Page-1" stroke="none" stroke-width="1" fill="none" fill-rule="evenodd" stroke-opacity="0.6">
        <g id="Create-account---Enter-Phone-number-Terms-overlay-Screen--tweaks" transform="translate(-464.000000, -217.000000)" stroke="#0B0A3E" stroke-width="1.5">
            <g id="Group-2" transform="translate(198.000000, 136.000000)">
                <g id="Phone-Number-Copy-2" transform="translate(0.000000, 71.000000)">
                    <g id="call" transform="translate(268.000000, 12.000000)">
                        <path d="M5.33632021,9.68971449 L7.74541098,7.38966596 L7.85117854,7.26376429 C8.22809109,6.69945027 8.38231074,5.98110125 8.18387914,5.38691705 C7.71912303,3.99524999 7.48749977,2.6081032 7.48749977,1.22271451 C7.48749977,0.0745583921 6.66140014,-0.75 5.51249981,-0.75 L1.22499996,-0.75 C0.0760996227,-0.75 -0.75,0.0745583921 -0.75,1.22271451 C-0.75,13.1307583 8.89609932,22.7588612 20.8249993,22.7588612 C21.9738996,22.7588612 22.7999992,21.9343028 22.7999992,20.7861467 L22.7999992,16.6289173 C22.7999992,15.4807612 21.9738996,14.6562028 20.8249993,14.6562028 C19.3452546,14.6562028 17.9849417,14.4344315 16.7406567,13.9926244 C16.0679896,13.6072649 15.2444037,13.8031431 14.6601648,14.386292 L12.3641697,16.6780035 C9.36011461,14.9636675 6.88351057,12.5207371 5.33632021,9.68971449 Z" id="Shape"></path>
                    </g>
                </g>
            </g>
        </g>
    </g>
</svg>